<svg width="50" height="95" viewBox="0 0 50 95" fill="none" xmlns="http://www.w3.org/2000/svg">
<g clip-path="url(#clip0_2026_198)">
<path d="M12.4995 47.5001C12.4995 47.0072 12.5961 46.5142 12.7883 46.1316L35.7051 0.610511C36.1029 -0.178067 36.7621 -0.207012 37.1781 0.548723C37.5941 1.3026 37.6104 2.55486 37.2106 3.34734L14.9825 47.4999L37.2106 91.6524C37.6084 92.4467 37.592 93.6973 37.1781 94.451C36.7621 95.2068 36.1029 95.1778 35.7051 94.3892L12.7883 48.8685C12.5961 48.4857 12.4995 47.9929 12.4995 47.5001Z" fill="black"/>
<path d="M12.4995 47.5001C12.4995 47.0072 12.5961 46.5142 12.7883 46.1316L35.7051 0.610511C36.1029 -0.178067 36.7621 -0.207012 37.1781 0.548723C37.5941 1.3026 37.6104 2.55486 37.2106 3.34734L14.9825 47.4999L37.2106 91.6524C37.6084 92.4467 37.592 93.6973 37.1781 94.451C36.7621 95.2068 36.1029 95.1778 35.7051 94.3892L12.7883 48.8685C12.5961 48.4857 12.4995 47.9929 12.4995 47.5001Z" fill="url(#paint0_linear_2026_198)"/>
</g>
<defs>
<linearGradient id="paint0_linear_2026_198" x1="41.2499" y1="4.04251" x2="-6.10839" y2="57.492" gradientUnits="userSpaceOnUse">
<stop stop-color="white" stop-opacity="0.2"/>
<stop offset="1" stop-color="white" stop-opacity="0"/>
</linearGradient>
<clipPath id="clip0_2026_198">
<rect width="95" height="50" fill="white" transform="matrix(0 1 -1 0 50 0)"/>
</clipPath>
</defs>
</svg>
