<svg width="50" height="95" viewBox="0 0 50 95" fill="none" xmlns="http://www.w3.org/2000/svg">
<g clip-path="url(#clip0_2026_195)">
<path d="M37.5005 47.4999C37.5005 47.9928 37.4039 48.4858 37.2117 48.8684L14.2949 94.3895C13.8971 95.1781 13.2379 95.207 12.8219 94.4513C12.4059 93.6974 12.3896 92.4451 12.7894 91.6527L35.0175 47.5001L12.7894 3.34759C12.3916 2.55325 12.408 1.30267 12.8219 0.548965C13.2379 -0.206764 13.8971 -0.177818 14.2949 0.610756L37.2117 46.1315C37.4039 46.5143 37.5005 47.0071 37.5005 47.4999Z" fill="black"/>
<path d="M37.5005 47.4999C37.5005 47.9928 37.4039 48.4858 37.2117 48.8684L14.2949 94.3895C13.8971 95.1781 13.2379 95.207 12.8219 94.4513C12.4059 93.6974 12.3896 92.4451 12.7894 91.6527L35.0175 47.5001L12.7894 3.34759C12.3916 2.55325 12.408 1.30267 12.8219 0.548965C13.2379 -0.206764 13.8971 -0.177818 14.2949 0.610756L37.2117 46.1315C37.4039 46.5143 37.5005 47.0071 37.5005 47.4999Z" fill="url(#paint0_linear_2026_195)"/>
</g>
<defs>
<linearGradient id="paint0_linear_2026_195" x1="8.75015" y1="90.9575" x2="56.1084" y2="37.508" gradientUnits="userSpaceOnUse">
<stop stop-color="white" stop-opacity="0.2"/>
<stop offset="1" stop-color="white" stop-opacity="0"/>
</linearGradient>
<clipPath id="clip0_2026_195">
<rect width="95" height="50" fill="white" transform="matrix(0 -1 1 0 0 95)"/>
</clipPath>
</defs>
</svg>
